<?xml version="1.0" encoding="utf-8"?>
<!-- Generator: Adobe Illustrator 22.0.1, SVG Export Plug-In . SVG Version: 6.00 Build 0)  -->
<svg version="1.1" id="Laag_1" xmlns="http://www.w3.org/2000/svg" xmlns:xlink="http://www.w3.org/1999/xlink" x="0px" y="0px"
	 viewBox="0 0 883.9 637.3" style="enable-background:new 0 0 883.9 637.3;" xml:space="preserve">
<style type="text/css">
	.st0{fill:#005CB9;}
	.st1{clip-path:url(#SVGID_2_);fill:#CE8A14;}
	.st2{fill:#CE8A14;}
	.st3{clip-path:url(#SVGID_4_);fill:#CE8A14;}
	.st4{clip-path:url(#SVGID_6_);fill:#CE8A14;}
	.st5{clip-path:url(#SVGID_8_);fill:#005CB9;}
	.st6{clip-path:url(#SVGID_10_);fill:#005CB9;}
	.st7{clip-path:url(#SVGID_12_);fill:#005CB9;}
	.st8{clip-path:url(#SVGID_14_);fill:#3A8DDE;}
	.st9{fill:#3A8DDE;}
	.st10{clip-path:url(#SVGID_16_);fill:#3A8DDE;}
	.st11{clip-path:url(#SVGID_18_);fill:#3A8DDE;}
	.st12{clip-path:url(#SVGID_20_);fill:#FFFFFF;}
	.st13{fill:#FFFFFF;}
	.st14{clip-path:url(#SVGID_22_);fill:none;stroke:#FFFFFF;stroke-width:1.25;stroke-miterlimit:10;}
	.st15{clip-path:url(#SVGID_22_);fill:none;stroke:#000000;stroke-width:0.25;stroke-miterlimit:10;}
</style>
<path class="st0" d="M329.4,346.3c1.5,3.7,3.4,6.6,8.5,6.6s7-3,8.5-6.6l25-63.6c0.6-1.5,0.8-2.6,0.8-4.2c0-4.8-4.2-8.2-8.8-8.2
	c-3.9,0-6.3,2.5-7.8,5.6l-17.7,47.5l-17.7-47.5c-1.5-3.1-3.9-5.6-7.8-5.6c-4.6,0-8.8,3.4-8.8,8.2c0,1.6,0.2,2.7,0.8,4.2L329.4,346.3
	z"/>
<path class="st0" d="M383.8,344.1c0,5.1,3.8,8.6,8.8,8.6h29.5c5.4,0,8.1-4,8.1-7.9c0-4-2.6-7.9-8.1-7.9h-21.1v-17.4h18.7
	c5.5,0,8.3-4,8.3-7.9c0-4-2.7-7.9-8.3-7.9h-18.7v-16.7h20.1c5.4,0,8.1-4,8.1-7.9c0-4-2.6-7.9-8.1-7.9h-28.3c-6.1,0-8.9,4.2-8.9,9.9
	V344.1z"/>
<path class="st0" d="M441.5,312c0,23.7,16.1,42,39.3,42c8.5,0,25.7-2.5,25.7-13.5c0-2.6-2.4-7.8-7.5-7.8c-4.7,0-8.6,4.8-18.2,4.8
	c-14.1,0-21.5-11.7-21.5-25.3c0-13.9,7.3-25.9,21.5-25.9c9.6,0,12.8,4,17.5,4c4.2,0,7.1-3.5,7.1-7.7c0-10.1-16.2-12.8-24.6-12.8
	C457.5,270,441.5,288.2,441.5,312z"/>
<path class="st0" d="M555.2,354.1c23.4,0,39.3-18.4,39.3-42c0-23.2-16.3-42-39.3-42c-23.3,0-39.3,18.3-39.3,42
	C515.9,335.7,532,354.1,555.2,354.1z M555.2,338.3c-14.5,0-21.5-12.3-21.5-26.3c0-13.8,7.2-26.3,21.5-26.3
	c14.3,0,21.5,12.5,21.5,26.3C576.7,326,569.7,338.3,555.2,338.3z"/>
<path class="st0" d="M624.9,337.6l36.6-50.7c1.5-1.9,2.5-4.8,2.5-7.3c0-4-3-8.2-9.6-8.2h-41.8c-4.3,0-8,3.4-8,7.8
	c0,4.7,3.4,7.3,8,7.3h30l-36.8,51.4c-1.5,2.1-2.3,4.3-2.3,6.6c0,4.8,3.5,8.2,9.6,8.2H658c4.1,0,8.2-3.2,8.2-7.5
	c0-4.9-3.4-7.5-8.2-7.5H624.9z"/>
<path class="st0" d="M713.4,354.1c23.4,0,39.3-18.4,39.3-42c0-23.2-16.3-42-39.3-42c-23.3,0-39.3,18.3-39.3,42
	C674.1,335.7,690.2,354.1,713.4,354.1z M713.4,338.3c-14.5,0-21.5-12.3-21.5-26.3c0-13.8,7.2-26.3,21.5-26.3
	c14.3,0,21.5,12.5,21.5,26.3C734.9,326,727.9,338.3,713.4,338.3z"/>
<g>
	<defs>
		<rect id="SVGID_1_" x="6.8" y="6.8" width="870.2" height="623.6"/>
	</defs>
	<clipPath id="SVGID_2_">
		<use xlink:href="#SVGID_1_"  style="overflow:visible;"/>
	</clipPath>
	<path class="st1" d="M256.9,287.1c4.7,0,8.6-3.8,8.6-8.6c0-4.7-3.8-8.6-8.6-8.6c-4.7,0-8.6,3.8-8.6,8.6
		C248.3,283.3,252.1,287.1,256.9,287.1"/>
	<path class="st1" d="M282,352.6c4.7,0,8.6-3.8,8.6-8.6c0-4.7-3.8-8.6-8.6-8.6c-4.7,0-8.6,3.8-8.6,8.6
		C273.4,348.8,277.2,352.6,282,352.6"/>
</g>
<rect x="260.6" y="276.1" transform="matrix(0.9336 -0.3584 0.3584 0.9336 -93.465 117.1168)" class="st2" width="17.2" height="69.2"/>
<g>
	<defs>
		<rect id="SVGID_3_" x="6.8" y="6.8" width="870.2" height="623.6"/>
	</defs>
	<clipPath id="SVGID_4_">
		<use xlink:href="#SVGID_3_"  style="overflow:visible;"/>
	</clipPath>
	<path class="st3" d="M274.9,287.1c4.7,0,8.6-3.8,8.6-8.6c0-4.7-3.8-8.6-8.6-8.6c-4.7,0-8.6,3.8-8.6,8.6
		C266.3,283.3,270.1,287.1,274.9,287.1"/>
	<path class="st3" d="M300,352.6c4.7,0,8.6-3.8,8.6-8.6c0-4.7-3.8-8.6-8.6-8.6c-4.7,0-8.6,3.8-8.6,8.6
		C291.5,348.8,295.3,352.6,300,352.6"/>
</g>
<rect x="278.7" y="276.1" transform="matrix(0.9336 -0.3584 0.3584 0.9336 -92.3372 123.6121)" class="st2" width="17.2" height="69.6"/>
<g>
	<defs>
		<rect id="SVGID_5_" x="6.8" y="6.8" width="870.2" height="623.6"/>
	</defs>
	<clipPath id="SVGID_6_">
		<use xlink:href="#SVGID_5_"  style="overflow:visible;"/>
	</clipPath>
	<path class="st4" d="M239.2,287.1c4.7,0,8.6-3.8,8.6-8.6c0-4.7-3.8-8.6-8.6-8.6c-4.7,0-8.6,3.8-8.6,8.6
		C230.6,283.3,234.5,287.1,239.2,287.1"/>
	<path class="st4" d="M264.3,352.6c4.7,0,8.6-3.8,8.6-8.6c0-4.7-3.8-8.6-8.6-8.6c-4.7,0-8.6,3.8-8.6,8.6
		C255.7,348.8,259.6,352.6,264.3,352.6"/>
</g>
<rect x="243.1" y="276.1" transform="matrix(0.9336 -0.3584 0.3584 0.9336 -94.7522 110.8517)" class="st2" width="17.2" height="69.9"/>
<rect x="239.5" y="270" class="st2" width="35.5" height="14.7"/>
<rect x="264.6" y="337.9" class="st2" width="36" height="14.7"/>
<g>
	<defs>
		<rect id="SVGID_7_" x="6.8" y="6.8" width="870.2" height="623.6"/>
	</defs>
	<clipPath id="SVGID_8_">
		<use xlink:href="#SVGID_7_"  style="overflow:visible;"/>
	</clipPath>
	<path class="st5" d="M183.7,287.1c4.7,0,8.6-3.8,8.6-8.6c0-4.7-3.8-8.6-8.6-8.6c-4.7,0-8.6,3.8-8.6,8.6
		C175.1,283.3,178.9,287.1,183.7,287.1"/>
	<path class="st5" d="M208.8,352.6c4.7,0,8.6-3.8,8.6-8.6c0-4.7-3.8-8.6-8.6-8.6c-4.7,0-8.6,3.8-8.6,8.6
		C200.2,348.8,204.1,352.6,208.8,352.6"/>
</g>
<rect x="187.5" y="276.1" transform="matrix(0.9336 -0.3584 0.3584 0.9336 -98.3252 90.8938)" class="st0" width="17.2" height="69.2"/>
<g>
	<defs>
		<rect id="SVGID_9_" x="6.8" y="6.8" width="870.2" height="623.6"/>
	</defs>
	<clipPath id="SVGID_10_">
		<use xlink:href="#SVGID_9_"  style="overflow:visible;"/>
	</clipPath>
	<path class="st6" d="M201.7,287.1c4.7,0,8.6-3.8,8.6-8.6c0-4.7-3.8-8.6-8.6-8.6c-4.7,0-8.6,3.8-8.6,8.6
		C193.1,283.3,197,287.1,201.7,287.1"/>
	<path class="st6" d="M226.9,352.6c4.7,0,8.6-3.8,8.6-8.6c0-4.7-3.8-8.6-8.6-8.6c-4.7,0-8.6,3.8-8.6,8.6
		C218.3,348.8,222.1,352.6,226.9,352.6"/>
</g>
<rect x="205.6" y="276.1" transform="matrix(0.9336 -0.3584 0.3584 0.9336 -97.1972 97.3894)" class="st0" width="17.2" height="69.6"/>
<g>
	<defs>
		<rect id="SVGID_11_" x="6.8" y="6.8" width="870.2" height="623.6"/>
	</defs>
	<clipPath id="SVGID_12_">
		<use xlink:href="#SVGID_11_"  style="overflow:visible;"/>
	</clipPath>
	<path class="st7" d="M166,287.1c4.7,0,8.6-3.8,8.6-8.6c0-4.7-3.8-8.6-8.6-8.6c-4.7,0-8.6,3.8-8.6,8.6
		C157.4,283.3,161.3,287.1,166,287.1"/>
	<path class="st7" d="M191.2,352.6c4.7,0,8.6-3.8,8.6-8.6c0-4.7-3.8-8.6-8.6-8.6c-4.7,0-8.6,3.8-8.6,8.6
		C182.6,348.8,186.4,352.6,191.2,352.6"/>
</g>
<rect x="169.9" y="276.1" transform="matrix(0.9336 -0.3584 0.3584 0.9336 -99.6124 84.6283)" class="st0" width="17.2" height="69.9"/>
<rect x="166.3" y="270" class="st0" width="35.4" height="14.7"/>
<rect x="191.4" y="337.9" class="st0" width="36" height="14.7"/>
<g>
	<defs>
		<rect id="SVGID_13_" x="6.8" y="6.8" width="870.2" height="623.6"/>
	</defs>
	<clipPath id="SVGID_14_">
		<use xlink:href="#SVGID_13_"  style="overflow:visible;"/>
	</clipPath>
	<path class="st8" d="M110.5,287.1c4.7,0,8.6-3.8,8.6-8.6c0-4.7-3.8-8.6-8.6-8.6c-4.7,0-8.6,3.8-8.6,8.6
		C101.9,283.3,105.8,287.1,110.5,287.1"/>
	<path class="st8" d="M135.6,352.6c4.7,0,8.6-3.8,8.6-8.6c0-4.7-3.8-8.6-8.6-8.6c-4.7,0-8.6,3.8-8.6,8.6
		C127,348.8,130.9,352.6,135.6,352.6"/>
</g>
<rect x="114.3" y="276.1" transform="matrix(0.9336 -0.3584 0.3584 0.9336 -103.1851 64.6718)" class="st9" width="17.2" height="69.2"/>
<g>
	<defs>
		<rect id="SVGID_15_" x="6.8" y="6.8" width="870.2" height="623.6"/>
	</defs>
	<clipPath id="SVGID_16_">
		<use xlink:href="#SVGID_15_"  style="overflow:visible;"/>
	</clipPath>
	<path class="st10" d="M128.5,287.1c4.7,0,8.6-3.8,8.6-8.6c0-4.7-3.8-8.6-8.6-8.6c-4.7,0-8.6,3.8-8.6,8.6
		C120,283.3,123.8,287.1,128.5,287.1"/>
	<path class="st10" d="M153.7,352.6c4.7,0,8.6-3.8,8.6-8.6c0-4.7-3.8-8.6-8.6-8.6c-4.7,0-8.6,3.8-8.6,8.6
		C145.1,348.8,149,352.6,153.7,352.6"/>
</g>
<rect x="132.4" y="276.1" transform="matrix(0.9336 -0.3584 0.3584 0.9336 -102.057 71.1679)" class="st9" width="17.2" height="69.6"/>
<g>
	<defs>
		<rect id="SVGID_17_" x="6.8" y="6.8" width="870.2" height="623.6"/>
	</defs>
	<clipPath id="SVGID_18_">
		<use xlink:href="#SVGID_17_"  style="overflow:visible;"/>
	</clipPath>
	<path class="st11" d="M92.9,287.1c4.7,0,8.6-3.8,8.6-8.6c0-4.7-3.8-8.6-8.6-8.6c-4.7,0-8.6,3.8-8.6,8.6
		C84.3,283.3,88.1,287.1,92.9,287.1"/>
	<path class="st11" d="M118,352.6c4.7,0,8.6-3.8,8.6-8.6c0-4.7-3.8-8.6-8.6-8.6c-4.7,0-8.6,3.8-8.6,8.6
		C109.4,348.8,113.2,352.6,118,352.6"/>
</g>
<rect x="96.7" y="276.1" transform="matrix(0.9336 -0.3584 0.3584 0.9336 -104.4725 58.4062)" class="st9" width="17.2" height="69.9"/>
<rect x="93.1" y="270" class="st9" width="35.5" height="14.7"/>
<rect x="118.2" y="337.9" class="st9" width="36" height="14.7"/>
<g>
	<defs>
		<rect id="SVGID_19_" x="6.8" y="6.8" width="870.2" height="623.6"/>
	</defs>
	<clipPath id="SVGID_20_">
		<use xlink:href="#SVGID_19_"  style="overflow:visible;"/>
	</clipPath>
	<path class="st12" d="M363.6,335.3c-4.7,0-8.6-3.8-8.6-8.6c0-4.7,3.8-8.6,8.6-8.6s8.6,3.8,8.6,8.6
		C372.2,331.5,368.4,335.3,363.6,335.3"/>
	<path class="st12" d="M388.7,269.9c-4.7,0-8.6-3.8-8.6-8.6c0-4.7,3.8-8.6,8.6-8.6c4.7,0,8.6,3.8,8.6,8.6
		C397.3,266,393.5,269.9,388.7,269.9"/>
</g>
<rect x="341.8" y="284.9" transform="matrix(0.3584 -0.9336 0.9336 0.3584 -32.4541 539.6437)" class="st13" width="69.2" height="17.2"/>
<g>
	<defs>
		<rect id="SVGID_21_" x="0" width="883.9" height="637.3"/>
	</defs>
	<clipPath id="SVGID_22_">
		<use xlink:href="#SVGID_21_"  style="overflow:visible;"/>
	</clipPath>
	<path class="st14" d="M862.9,622.3v15 M862.9,15V0 M21,622.3v15 M21,15V0 M868.9,616.3h15 M15,616.3H0 M868.9,21h15 M15,21H0"/>
	<path class="st15" d="M862.9,622.3v15 M862.9,15V0 M21,622.3v15 M21,15V0 M868.9,616.3h15 M15,616.3H0 M868.9,21h15 M15,21H0"/>
</g>
</svg>
